<?xml version="1.0"?>
<svg xmlns="http://www.w3.org/2000/svg" height="512px" viewBox="0 -70 512 512" width="512px" class=""><g><path d="m0 0v372.375h512v-372.375zm264.441406 22.746094c62.699219 3.886718 112.527344 56.125 112.527344 119.789062 0 63.664063-49.828125 115.902344-112.527344 119.789063v-15.03125c54.421875-3.863281 97.523438-49.367188 97.523438-104.757813 0-55.386718-43.101563-100.894531-97.523438-104.753906zm85.796875 22.265625h87.496094c2.992187 14.675781 14.578125 26.261719 29.253906 29.253906v136.539063c-14.675781 2.992187-26.261719 14.582031-29.253906 29.253906h-87.496094c25.703125-24.597656 41.730469-59.222656 41.730469-97.523438 0-38.300781-16.027344-72.925781-41.730469-97.523437zm-3.277343 97.523437c0 49.636719-40.386719 90.023438-90.023438 90.023438s-90.023438-40.386719-90.023438-90.023438c0-49.636718 40.386719-90.023437 90.023438-90.023437s90.023438 40.386719 90.023438 90.023437zm-97.523438-104.753906c-54.425781 3.859375-97.527344 49.363281-97.527344 104.753906 0 55.386719 43.101563 100.894532 97.527344 104.753906v15.03125c-62.703125-3.882812-112.527344-56.121093-112.527344-119.785156 0-63.664062 49.824219-115.902344 112.527344-119.789062zm-85.800781 202.277344h-89.371094c-2.992187-14.671875-14.578125-26.261719-29.253906-29.253906v-136.539063c14.675781-2.992187 26.261719-14.578125 29.253906-29.253906h89.371094c-25.703125 24.597656-41.730469 59.222656-41.730469 97.523437 0 38.300782 16.027344 72.925782 41.730469 97.523438zm-148.632813-225.054688h197.550782c-10.734376 3.746094-20.851563 8.8125-30.164063 15.003906h-122.375v7.5c0 12.410157-10.097656 22.507813-22.507813 22.507813h-7.5v165.039063h7.5c12.410157 0 22.507813 10.097656 22.507813 22.503906v7.503906h122.375c9.3125 6.1875 19.429687 11.257812 30.164063 15.003906h-197.550782zm481.992188 342.371094h-481.992188v-13.648438h481.992188zm0-28.652344h-481.992188v-13.644531h481.992188zm0-28.648437h-481.992188v-15.003907h481.992188zm0-30.007813h-195.675782c10.738282-3.746094 20.859376-8.8125 30.171876-15.003906h120.492187v-7.503906c0-12.40625 10.097656-22.503906 22.507813-22.503906h7.5v-165.039063h-7.5c-12.410157 0-22.507813-10.097656-22.507813-22.507813v-7.5h-120.492187c-9.316407-6.191406-19.4375-11.257812-30.171876-15.003906h195.675782zm0 0" data-original="#000000" class="active-path" data-old_color="#000000" fill="#F3B007"/><path d="m466.988281 30.007812h15.003907v15.003907h-15.003907zm0 0" data-original="#000000" class="active-path" data-old_color="#000000" fill="#F3B007"/><path d="m466.988281 240.058594h15.003907v15.003906h-15.003907zm0 0" data-original="#000000" class="active-path" data-old_color="#000000" fill="#F3B007"/><path d="m30.007812 30.007812h15.003907v15.003907h-15.003907zm0 0" data-original="#000000" class="active-path" data-old_color="#000000" fill="#F3B007"/><path d="m30.007812 240.058594h15.003907v15.003906h-15.003907zm0 0" data-original="#000000" class="active-path" data-old_color="#000000" fill="#F3B007"/><path d="m76.894531 135.03125h15.003907v15.003906h-15.003907zm0 0" data-original="#000000" class="active-path" data-old_color="#000000" fill="#F3B007"/><path d="m421.976562 135.03125h15.003907v15.003906h-15.003907zm0 0" data-original="#000000" class="active-path" data-old_color="#000000" fill="#F3B007"/><path d="m253.730469 171.039062c-9.507813 0-18.140625-3.074218-24.285157-6.4375l-4.390624 17.117188c5.5625 3.21875 15.070312 5.851562 24.875 6.292969v13.898437h14.335937v-14.921875c16.828125-2.925781 26.042969-14.046875 26.042969-27.070312 0-13.167969-7.019532-21.214844-24.433594-27.359375-12.433594-4.679688-17.554688-7.753906-17.554688-12.582032 0-4.097656 3.070313-8.191406 12.582032-8.191406 10.535156 0 17.261718 3.363282 21.070312 4.972656l4.242188-16.535156c-4.828125-2.339844-11.414063-4.386718-21.21875-4.828125v-12.875h-14.335938v13.902344c-15.65625 3.070313-24.726562 13.167969-24.726562 26.042969 0 14.191406 10.679687 21.507812 26.335937 26.773437 10.828125 3.65625 15.507813 7.167969 15.507813 12.730469 0 5.851562-5.707032 9.070312-14.046875 9.070312zm0 0" data-original="#000000" class="active-path" data-old_color="#000000" fill="#F3B007"/></g> </svg>
